<svg xmlns="http://www.w3.org/2000/svg" viewBox="0 0 1000 340"><rect width="1000" height="340" fill="#0c0c0c"/><polygon points="60,280 60,266 84,268 114,267 139,272 167,255 188,253 215,265 249,241 279,228 316,60 333,193 375,240 404,264 427,254 446,250 471,266 489,259 513,267 528,272 553,267 592,265 612,251 652,220 707,260 744,263 767,264 789,255 819,175 856,225 888,239 915,251 940,270 940,280" fill="#ef4b0b" opacity=".22"/><polyline points="60,266 84,268 114,267 139,272 167,255 188,253 215,265 249,241 279,228 316,60 333,193 375,240 404,264 427,254 446,250 471,266 489,259 513,267 528,272 553,267 592,265 612,251 652,220 707,260 744,263 767,264 789,255 819,175 856,225 888,239 915,251 940,270" fill="none" stroke="#ef4b0b" stroke-width="5"/><line x1="60" y1="280" x2="940" y2="280" stroke="#666"/><g fill="#aaa" font-family="Arial" font-size="15" text-anchor="middle"><text x="60" y="310">0 km</text><text x="265" y="310">5 km</text><text x="470" y="310">10 km</text><text x="675" y="310">15 km</text><text x="880" y="310">20 km</text></g><text x="60" y="35" fill="#fff" font-family="Arial" font-size="24" font-weight="700">HØYDEPROFIL</text><text x="940" y="35" fill="#aaa" font-family="Arial" font-size="16" text-anchor="end">ca. 1–49 moh.</text></svg>